<?xml version="1.0" encoding="utf-8"?>
<!-- Generator: Adobe Illustrator 24.2.0, SVG Export Plug-In . SVG Version: 6.00 Build 0)  -->
<svg version="1.1" id="Layer_1" xmlns="http://www.w3.org/2000/svg" xmlns:xlink="http://www.w3.org/1999/xlink" x="0px" y="0px"
	 viewBox="0 0 4000 4000" style="enable-background:new 0 0 4000 4000;" xml:space="preserve">
<style type="text/css">
	.st0{display:none;fill:#FFFFFF;}
	.st1{fill:#3D3144;}
	.st2{fill:#F3F7F2;}
	.st3{opacity:0.3;}
	.st4{fill:#000072;}
	.st5{fill:#4D5A6A;}
	.st6{opacity:0.55;}
	.st7{fill:#FFFFFF;}
	.st8{opacity:0.4;}
	.st9{fill:#FDBD91;}
	.st10{fill:#AC3D50;}
	.st11{opacity:0.2;}
	.st12{fill:#FEFEFE;}
	.st13{filter:url(#Adobe_OpacityMaskFilter);}
	.st14{filter:url(#Adobe_OpacityMaskFilter_1_);}
	.st15{mask:url(#SVGID_1_);fill:url(#SVGID_2_);}
	.st16{opacity:0.5;fill:#A231DD;}
	.st17{fill:#C6D3E3;}
	.st18{opacity:0.75;}
</style>
<g>
	<rect class="st0" width="4000" height="4000"/>
	<g>
		<g>
			<circle class="st1" cx="2000" cy="1733.65" r="1153.65"/>
		</g>
		<g>
			<g>
				<path class="st2" d="M2889.25,1258.78h-222.1c-8.56,0-15.49-6.94-15.49-15.5c0-8.56,6.93-15.5,15.49-15.5h222.1
					c8.56,0,15.49,6.94,15.49,15.5C2904.74,1251.84,2897.81,1258.78,2889.25,1258.78z"/>
			</g>
			<g>
				<path class="st2" d="M2452.8,1258.78h-909.38c-8.56,0-15.49-6.94-15.49-15.5c0-8.56,6.93-15.5,15.49-15.5h909.38
					c8.56,0,15.49,6.94,15.49,15.5C2468.29,1251.84,2461.36,1258.78,2452.8,1258.78z"/>
			</g>
			<g>
				<path class="st2" d="M1399.97,1258.78H1148.6c-8.56,0-15.49-6.94-15.49-15.5c0-8.56,6.93-15.5,15.49-15.5h251.37
					c8.56,0,15.49,6.94,15.49,15.5C1415.46,1251.84,1408.53,1258.78,1399.97,1258.78z"/>
			</g>
			<g>
				<path class="st2" d="M2889.25,1387.91h-191.11c-8.56,0-15.49-6.94-15.49-15.5s6.93-15.5,15.49-15.5h191.11
					c8.56,0,15.49,6.94,15.49,15.5S2897.81,1387.91,2889.25,1387.91z"/>
			</g>
			<g>
				<path class="st2" d="M2581.07,1387.91H1439.01c-8.56,0-15.49-6.94-15.49-15.5s6.93-15.5,15.49-15.5h1142.05
					c8.56,0,15.49,6.94,15.49,15.5S2589.62,1387.91,2581.07,1387.91z"/>
			</g>
			<g>
				<path class="st2" d="M1280.52,1387.91H1148.6c-8.56,0-15.49-6.94-15.49-15.5s6.93-15.5,15.49-15.5h131.92
					c8.56,0,15.49,6.94,15.49,15.5S1289.08,1387.91,1280.52,1387.91z"/>
			</g>
			<g>
				<path class="st2" d="M2889.25,1517.04H1148.6c-8.56,0-15.49-6.94-15.49-15.5c0-8.56,6.93-15.5,15.49-15.5h1740.65
					c8.56,0,15.49,6.94,15.49,15.5C2904.74,1510.1,2897.81,1517.04,2889.25,1517.04z"/>
			</g>
			<g>
				<path class="st2" d="M2889.25,1646.16H1417.19c-8.56,0-15.49-6.94-15.49-15.5s6.93-15.5,15.49-15.5h1472.06
					c8.56,0,15.49,6.94,15.49,15.5S2897.81,1646.16,2889.25,1646.16z"/>
			</g>
			<g>
				<path class="st2" d="M1280.52,1646.16H1148.6c-8.56,0-15.49-6.94-15.49-15.5s6.93-15.5,15.49-15.5h131.92
					c8.56,0,15.49,6.94,15.49,15.5S1289.08,1646.16,1280.52,1646.16z"/>
			</g>
			<g>
				<path class="st2" d="M2889.25,1775.29H2778.2c-8.56,0-15.49-6.94-15.49-15.5c0-8.56,6.93-15.5,15.49-15.5h111.05
					c8.56,0,15.49,6.94,15.49,15.5C2904.74,1768.35,2897.81,1775.29,2889.25,1775.29z"/>
			</g>
			<g>
				<path class="st2" d="M2667.15,1775.29H1148.6c-8.56,0-15.49-6.94-15.49-15.5c0-8.56,6.93-15.5,15.49-15.5h1518.55
					c8.56,0,15.49,6.94,15.49,15.5C2682.64,1768.35,2675.71,1775.29,2667.15,1775.29z"/>
			</g>
			<g>
				<path class="st2" d="M2889.25,1904.42H1148.6c-8.56,0-15.49-6.94-15.49-15.5c0-8.56,6.93-15.5,15.49-15.5h1740.65
					c8.56,0,15.49,6.94,15.49,15.5C2904.74,1897.48,2897.81,1904.42,2889.25,1904.42z"/>
			</g>
			<g>
				<path class="st2" d="M2889.25,2033.55h-125.33c-8.56,0-15.49-6.94-15.49-15.5c0-8.56,6.93-15.5,15.49-15.5h125.33
					c8.56,0,15.49,6.94,15.49,15.5C2904.74,2026.61,2897.81,2033.55,2889.25,2033.55z"/>
			</g>
			<g>
				<path class="st2" d="M2632.36,2033.55H1486.06c-8.56,0-15.49-6.94-15.49-15.5c0-8.56,6.93-15.5,15.49-15.5h1146.31
					c8.56,0,15.49,6.94,15.49,15.5C2647.86,2026.61,2640.92,2033.55,2632.36,2033.55z"/>
			</g>
			<g>
				<path class="st2" d="M1296.67,2033.55H1148.6c-8.56,0-15.49-6.94-15.49-15.5c0-8.56,6.93-15.5,15.49-15.5h148.07
					c8.56,0,15.49,6.94,15.49,15.5C1312.16,2026.61,1305.23,2033.55,1296.67,2033.55z"/>
			</g>
			<g>
				<path class="st2" d="M2889.25,2162.68h-279.61c-8.56,0-15.49-6.94-15.49-15.5s6.93-15.5,15.49-15.5h279.61
					c8.56,0,15.49,6.94,15.49,15.5S2897.81,2162.68,2889.25,2162.68z"/>
			</g>
			<g>
				<path class="st2" d="M2391.68,2162.68H1148.6c-8.56,0-15.49-6.94-15.49-15.5s6.93-15.5,15.49-15.5h1243.08
					c8.56,0,15.49,6.94,15.49,15.5S2400.24,2162.68,2391.68,2162.68z"/>
			</g>
		</g>
		<g class="st3">
			<path class="st4" d="M905.96,3425.64c367.34,94.88,1820.64,94.88,2187.97,0c33.98-8.78,25.69-48.14-10.09-48.14H916.05
				C880.27,3377.51,871.98,3416.87,905.96,3425.64z"/>
		</g>
		<g>
			<path class="st4" d="M1008.79,3372.26c41.3-8.07,82.6-10.22,123.9-11.09c41.3-1.13,82.6-0.53,123.89,0.08
				c41.3,0.48,82.6,0.6,123.89,0.52h123.9h495.58h495.58h247.79l61.95-0.02c20.65,0.01,41.3-0.71,61.95-1.04
				c41.3-0.19,82.6,0.29,123.89,11.55c2.9,0.79,4.6,3.78,3.81,6.67c-0.52,1.92-2.02,3.32-3.81,3.81
				c-41.3,11.26-82.6,11.73-123.89,11.55c-20.65-0.33-41.3-1.05-61.95-1.04l-61.95-0.02h-247.79h-495.58h-495.58h-123.9
				c-41.3-0.08-82.6,0.05-123.89,0.52c-41.3,0.62-82.6,1.21-123.89,0.09c-41.3-0.88-82.6-3.02-123.9-11.09
				c-2.9-0.57-4.78-3.37-4.22-6.27C1005,3374.28,1006.72,3372.67,1008.79,3372.26z"/>
		</g>
		<g>
			<g>
				<g>
					<path class="st5" d="M2510.79,3265.52l6.52-0.78c181.96-21.63,306.51-194.24,269.67-373.74l-68.36-333.16
						c-31.2-152.03-165-261.17-320.2-261.17h-397.77h11.26h-397.77c-155.2,0-289,109.13-320.2,261.17L1225.57,2891
						c-36.83,179.5,87.72,352.11,269.67,373.74l6.52,0.78H2510.79z"/>
				</g>
				<g>
					<path class="st4" d="M2510.93,3268.02H1501.77l-6.82-0.79c-87.43-10.4-167.11-57.3-218.62-128.7
						c-51.51-71.39-70.9-161.79-53.21-248.03l68.36-333.16c31.29-152.49,166.99-263.16,322.65-263.16h784.29
						c155.66,0,291.35,110.68,322.65,263.16l68.36,333.16c17.7,86.24-1.7,176.65-53.21,248.04
						c-51.51,71.39-131.2,118.3-218.62,128.69L2510.93,3268.02z M1614.13,2299.18c-153.3,0-286.94,109-317.75,259.17l-68.36,333.16
						c-17.42,84.87,1.67,173.84,52.36,244.1c50.69,70.26,129.12,116.43,215.15,126.66l6.52,0.77l1008.58-0.02l6.38-0.76
						c86.04-10.23,164.45-56.39,215.15-126.65c50.7-70.26,69.79-159.23,52.37-244.11l-68.36-333.16
						c-30.81-150.17-164.44-259.17-317.74-259.17H1614.13z"/>
				</g>
			</g>
			<g class="st3">
				<path class="st4" d="M2517.31,3264.77l-6.51,0.76H1501.77l-6.51-0.76c-116.42-13.83-209.31-89.53-251.55-189.19
					c46.2,41.54,105.25,69.79,172.06,77.76l6.51,0.76h1009.04l6.51-0.76c181.98-21.64,306.54-194.24,269.67-373.72l-68.32-333.16
					c-4.61-22.4-11.44-43.81-20.23-64.15c49.56,45.22,85.41,105.85,99.67,175.53l68.38,333.16
					C2823.8,3070.48,2699.24,3243.13,2517.31,3264.77z"/>
			</g>
			<g class="st6">
				<path class="st7" d="M2559.72,2339.24c-37.25-14.7-77.71-22.67-119.73-22.67h-784.27c-155.19,0-289.02,109.1-320.2,261.15
					l-68.38,333.16c-28.09,136.92,37.69,269.77,151.24,334.74c-138.49-53.9-224.17-201.77-192.83-354.64l68.38-333.16
					c31.18-152,165.01-261.15,320.2-261.15h784.27C2456.64,2296.67,2511.84,2312.02,2559.72,2339.24z"/>
			</g>
			<g>
				<path class="st4" d="M2510.79,3281.79H1501.77c-0.64,0-1.28-0.04-1.91-0.11l-6.52-0.77c-91.25-10.85-174.4-59.8-228.16-134.31
					c-53.76-74.51-74-168.86-55.53-258.86l68.36-333.16c32.6-158.86,173.96-274.16,336.14-274.16h784.29
					c162.17,0,303.54,115.3,336.13,274.16l68.36,333.16c18.47,90-1.78,184.35-55.54,258.86s-136.92,123.46-228.15,134.31l-6.52,0.77
					C2512.07,3281.75,2511.43,3281.79,2510.79,3281.79z M1502.73,3249.25h1007.09l5.57-0.66c82.21-9.78,157.16-53.89,205.61-121.04
					c48.45-67.15,66.69-152.17,50.04-233.28l-68.36-333.16c-29.51-143.8-157.47-248.17-304.26-248.17h-784.29
					c-146.8,0-274.76,104.37-304.26,248.17l-68.36,333.16c-16.65,81.11,1.59,166.14,50.04,233.28
					c48.45,67.15,123.39,111.26,205.62,121.04L1502.73,3249.25z"/>
			</g>
			<g>
				<g>
					<path class="st5" d="M2585.59,2050.6c-0.98,3.8-2.01,7.65-3.04,11.39c-0.81,2.87-1.63,5.69-2.44,8.51
						c-0.33,1.08-0.6,2.11-0.98,3.2c-0.65,2.33-1.41,4.66-2.11,6.94c-0.92,2.98-1.9,5.91-2.87,8.84c-0.43,1.3-0.87,2.6-1.3,3.85
						c-1.41,4.23-2.87,8.41-4.45,12.53c-1.63,4.55-3.36,9.06-5.15,13.5c-1.74,4.5-3.58,8.95-5.48,13.39
						c-1.84,4.39-3.8,8.84-5.8,13.18c-1.9,4.23-3.85,8.41-5.86,12.58c-0.27,0.54-0.54,1.08-0.81,1.63c-1.84,3.9-3.8,7.75-5.8,11.6
						c-0.05,0.11-0.11,0.22-0.16,0.33c-2.17,4.28-4.39,8.46-6.67,12.69c-2.71,4.99-5.48,9.92-8.35,14.8
						c-1.95,3.42-3.96,6.78-5.97,10.14c-0.11,0.11-0.16,0.22-0.16,0.27c-2.49,4.12-5.04,8.19-7.65,12.26
						c-4.34,6.78-8.78,13.5-13.39,20.17c-2.01,2.93-4.07,5.8-6.13,8.68c-1.74,2.44-3.47,4.83-5.26,7.27
						c-2.66,3.63-5.37,7.21-8.08,10.79c-2.66,3.47-5.31,6.83-8.03,10.25c-1.52,1.9-3.04,3.8-4.55,5.64
						c-0.98,1.19-1.95,2.39-2.93,3.58c-1.84,2.17-3.63,4.34-5.48,6.51c-4.99,5.86-10.09,11.66-15.29,17.41
						c-2.49,2.82-5.1,5.59-7.7,8.35c-1.9,2.01-3.8,4.07-5.69,6.07c-2.71,2.82-5.37,5.59-8.13,8.3c-3.9,3.96-7.92,7.92-11.93,11.82
						c-3.25,3.15-6.51,6.24-9.81,9.27c-0.49,0.49-0.98,0.98-1.46,1.36c-3.36,3.2-6.78,6.29-10.25,9.38
						c-6.34,5.69-12.8,11.22-19.36,16.7c-1.63,1.36-3.25,2.71-4.93,4.12c-3.31,2.71-6.67,5.42-10.09,8.13
						c-11.82,9.38-23.91,18.44-36.28,27.17c-0.22,0.16-0.49,0.33-0.7,0.49c-48.21,33.95-100.64,59.16-155.09,75.7
						c-18.87,5.75-38.01,10.47-57.32,14.15c-85.51,16.27-174.12,11.98-258.01-12.74c-56.39-16.59-110.67-42.46-160.51-77.6
						c-3.9-2.77-7.81-5.59-11.71-8.41c-0.38-0.33-0.76-0.6-1.19-0.87c-3.85-2.87-7.7-5.75-11.5-8.62
						c-3.96-3.04-7.92-6.13-11.88-9.27h-0.05c-3.9-3.15-7.75-6.29-11.6-9.44c-3.9-3.2-7.7-6.45-11.5-9.71
						c-3.8-3.25-7.54-6.51-11.22-9.81c-3.74-3.36-7.43-6.67-11.06-10.09c-3.63-3.36-7.21-6.78-10.79-10.25
						c-3.58-3.42-7.1-6.89-10.57-10.41c-3.47-3.52-6.94-7.05-10.36-10.63c-3.42-3.63-6.83-7.27-10.25-10.95
						c-3.25-3.58-6.45-7.16-9.65-10.85c-2.49-2.82-4.99-5.69-7.43-8.57c-7.1-8.41-14.04-16.97-20.77-25.7
						c-2.71-3.58-5.48-7.16-8.08-10.79c-0.38-0.43-0.7-0.92-1.03-1.36c-1.84-2.44-3.63-4.93-5.37-7.43
						c-4.01-5.64-7.92-11.28-11.71-17.03c-2.11-3.15-4.23-6.34-6.24-9.54c-3.09-4.83-6.13-9.65-9.11-14.59
						c-2.06-3.47-4.18-7-6.24-10.52c-2.82-4.93-5.59-9.98-8.35-15.02c-2.01-3.8-4.01-7.59-5.96-11.39
						c-2.01-3.85-3.96-7.75-5.8-11.66c-0.33-0.54-0.6-1.08-0.81-1.63c-4.12-8.4-7.97-16.92-11.55-25.49
						c-0.22-0.38-0.38-0.71-0.49-1.08c-1.79-4.23-3.52-8.46-5.21-12.74c-1.79-4.45-3.52-8.95-5.15-13.5
						c-1.68-4.5-3.31-9.06-4.83-13.61c-1.14-3.36-2.28-6.78-3.36-10.19c-0.87-2.71-1.68-5.42-2.49-8.13
						c-0.38-1.19-0.76-2.44-1.08-3.63c-0.81-2.66-1.57-5.26-2.28-7.92c-1.08-3.9-2.11-7.81-3.15-11.77
						c-40.56-286.31,219.78-603.84,479.9-740c66.16-34.65,145.33-34.65,211.48,0c5.86,3.04,11.66,6.29,17.51,9.65l0.05,0.05
						C2377.41,1466.39,2625.22,1770.74,2585.59,2050.6z"/>
				</g>
				<g>
					<g class="st8">
						<path class="st4" d="M2099.99,2512.96c7.37-1.91,14.72-3.93,22.01-6.16c54.44-16.54,106.88-41.76,155.09-75.7
							c0.22-0.16,0.49-0.33,0.71-0.49c12.36-8.73,24.45-17.78,36.28-27.17c3.42-2.71,6.78-5.42,10.09-8.13
							c1.68-1.41,3.31-2.76,4.94-4.12c6.56-5.48,13.01-11.01,19.36-16.7c3.47-3.09,6.89-6.18,10.25-9.38
							c0.49-0.38,0.97-0.87,1.46-1.36c3.31-3.04,6.56-6.13,9.82-9.28c4.01-3.9,8.02-7.86,11.93-11.82c2.77-2.71,5.42-5.48,8.13-8.3
							c1.9-2,3.8-4.07,5.7-6.07c2.6-2.77,5.21-5.53,7.7-8.35c5.21-5.75,10.3-11.55,15.29-17.41c1.84-2.17,3.63-4.34,5.48-6.51
							c0.97-1.19,1.95-2.39,2.93-3.58c1.52-1.84,3.03-3.74,4.55-5.64c2.71-3.42,5.37-6.78,8.03-10.25
							c2.71-3.58,5.42-7.16,8.08-10.79c1.79-2.44,3.53-4.83,5.26-7.27c2.06-2.87,4.12-5.75,6.13-8.68
							c4.61-6.67,9.06-13.39,13.4-20.17c2.6-4.07,5.15-8.13,7.64-12.26c0-0.05,0.06-0.16,0.16-0.27c2-3.36,4.01-6.73,5.97-10.14
							c2.87-4.88,5.64-9.82,8.35-14.8c2.28-4.23,4.5-8.4,6.67-12.69c0.06-0.11,0.11-0.22,0.16-0.33c2.01-3.85,3.96-7.7,5.8-11.61
							c0.27-0.54,0.54-1.09,0.81-1.63c2.01-4.18,3.96-8.35,5.86-12.58c2.01-4.34,3.96-8.79,5.8-13.18c1.9-4.45,3.74-8.89,5.48-13.4
							c1.79-4.45,3.53-8.95,5.15-13.5c1.57-4.12,3.04-8.3,4.45-12.53c0.43-1.25,0.87-2.55,1.3-3.85c0.97-2.93,1.95-5.85,2.87-8.84
							c0.7-2.28,1.46-4.61,2.12-6.94c0.38-1.09,0.65-2.12,0.98-3.2c0.81-2.82,1.63-5.64,2.44-8.51c1.03-3.74,2.06-7.59,3.04-11.39
							c39.15-276.43-202.14-576.75-452.99-724.85c176.46,160.5,309.98,385.39,280.12,596.39c-0.98,3.8-2.01,7.65-3.04,11.39
							c-0.81,2.88-1.63,5.69-2.44,8.51c-0.33,1.09-0.6,2.12-0.97,3.2c-0.65,2.33-1.41,4.66-2.12,6.94c-0.92,2.98-1.9,5.91-2.88,8.84
							c-0.43,1.3-0.87,2.6-1.3,3.85c-1.41,4.23-2.87,8.4-4.45,12.52c-1.63,4.56-3.36,9.06-5.15,13.5c-1.73,4.5-3.58,8.95-5.48,13.39
							c-1.85,4.39-3.8,8.84-5.8,13.18c-1.9,4.23-3.85,8.41-5.86,12.58c-0.27,0.54-0.54,1.09-0.81,1.63c-1.84,3.9-3.79,7.76-5.8,11.6
							c-0.06,0.11-0.11,0.22-0.16,0.32c-2.17,4.28-4.39,8.46-6.67,12.69c-2.71,4.99-5.48,9.92-8.35,14.8
							c-1.95,3.42-3.96,6.78-5.97,10.14c-0.11,0.11-0.16,0.22-0.16,0.27c-2.49,4.12-5.04,8.19-7.64,12.25
							c-4.34,6.78-8.79,13.5-13.4,20.17c-2.01,2.93-4.07,5.8-6.13,8.68c-1.74,2.44-3.47,4.82-5.26,7.27
							c-2.66,3.63-5.37,7.21-8.08,10.79c-2.66,3.47-5.31,6.83-8.02,10.25c-1.52,1.9-3.04,3.8-4.56,5.64
							c-0.98,1.19-1.95,2.39-2.93,3.58c-1.84,2.17-3.63,4.34-5.48,6.51c-4.99,5.85-10.09,11.66-15.29,17.41
							c-2.5,2.82-5.1,5.58-7.7,8.35c-1.9,2-3.79,4.07-5.69,6.07c-2.71,2.82-5.37,5.59-8.13,8.3c-3.91,3.96-7.92,7.92-11.93,11.82
							c-3.25,3.15-6.51,6.24-9.82,9.27c-0.49,0.49-0.97,0.97-1.46,1.36c-3.36,3.2-6.78,6.29-10.25,9.38
							c-6.35,5.7-12.8,11.23-19.36,16.7c-1.63,1.36-3.25,2.71-4.93,4.12c-3.31,2.71-6.67,5.42-10.09,8.13
							c-11.82,9.38-23.91,18.44-36.28,27.17c-0.22,0.16-0.49,0.33-0.7,0.49c-48.21,33.94-100.64,59.16-155.09,75.7
							c-18.87,5.75-38.01,10.46-57.32,14.15c-32.07,6.1-64.57,9.31-97.1,9.64c32.52-0.33,65.03-3.54,97.1-9.64
							c0.92-0.18,1.84-0.38,2.77-0.57c-11.69,3.04-23.46,5.73-35.3,8c-70.75,13.46-143.61,12.81-214.16-1.81
							c-0.82-0.65-1.64-1.27-2.47-1.92c3.88,3.08,7.77,6.12,11.65,9.1c3.8,2.88,7.65,5.75,11.5,8.62c0.43,0.27,0.82,0.54,1.19,0.87
							c3.9,2.82,7.81,5.64,11.71,8.41c49.84,35.14,104.11,61,160.51,77.6c83.89,24.72,172.49,29.01,258.01,12.74
							c10.09-1.93,20.13-4.15,30.12-6.64C2118.27,2509.14,2109.15,2511.16,2099.99,2512.96z"/>
					</g>
				</g>
				<g class="st6">
					<path class="st7" d="M2216.25,1384.36c-20.01-13.56-40.24-26.19-60.46-37.85l-0.05-0.05c-5.86-3.36-11.66-6.62-17.52-9.65
						c-66.16-34.65-145.33-34.65-211.48,0c-260.12,136.16-520.46,453.71-479.9,740.02c1.03,3.96,2.06,7.86,3.15,11.77
						c0.71,2.66,1.46,5.26,2.28,7.92c0.33,1.19,0.7,2.44,1.08,3.63c0.81,2.71,1.63,5.42,2.49,8.13c1.08,3.42,2.22,6.83,3.36,10.19
						c1.52,4.55,3.14,9.11,4.83,13.61c1.63,4.55,3.36,9.06,5.15,13.5c1.68,4.28,3.42,8.51,5.21,12.74c0.11,0.38,0.27,0.71,0.49,1.08
						c3.58,8.57,7.43,17.08,11.55,25.49c0.22,0.54,0.49,1.08,0.81,1.63c1.84,3.9,3.8,7.81,5.8,11.66c1.95,3.8,3.96,7.59,5.96,11.39
						c2.77,5.04,5.53,10.09,8.35,15.02c2.06,3.52,4.18,7.05,6.24,10.52c2.98,4.93,6.02,9.76,9.11,14.59c2.01,3.2,4.12,6.4,6.24,9.54
						c3.8,5.75,7.7,11.39,11.71,17.03c1.74,2.49,3.52,4.99,5.37,7.43c0.33,0.43,0.65,0.92,1.03,1.36c2.6,3.63,5.37,7.21,8.08,10.79
						c6.72,8.73,13.67,17.3,20.77,25.7c2.44,2.87,4.93,5.75,7.43,8.57c3.2,3.69,6.4,7.27,9.65,10.85
						c3.42,3.69,6.83,7.32,10.25,10.95c3.42,3.58,6.89,7.1,10.36,10.63c3.47,3.52,6.99,7,10.57,10.41
						c3.58,3.47,7.16,6.89,10.79,10.25c3.63,3.42,7.32,6.72,11.06,10.09c3.69,3.31,7.43,6.56,11.22,9.81s7.59,6.51,11.5,9.71
						c3.85,3.14,7.7,6.29,11.6,9.44h0.05c3.96,3.14,7.92,6.24,11.88,9.27c3.52,2.66,7.1,5.31,10.68,8.03
						c-4.5-2.93-8.95-5.96-13.39-9.11c-3.9-2.77-7.81-5.59-11.71-8.41c-0.38-0.33-0.76-0.6-1.19-0.87c-3.85-2.87-7.7-5.75-11.5-8.62
						c-3.96-3.04-7.92-6.13-11.88-9.27h-0.05c-3.9-3.15-7.75-6.29-11.6-9.44c-3.9-3.2-7.7-6.45-11.5-9.71
						c-3.8-3.25-7.54-6.51-11.22-9.81c-3.74-3.36-7.43-6.67-11.06-10.09c-3.63-3.36-7.21-6.78-10.79-10.25
						c-3.58-3.42-7.1-6.89-10.57-10.41c-3.47-3.52-6.94-7.05-10.36-10.63c-3.42-3.63-6.83-7.27-10.25-10.95
						c-3.25-3.58-6.45-7.16-9.65-10.85c-2.49-2.82-4.99-5.69-7.43-8.57c-7.1-8.4-14.04-16.97-20.77-25.7
						c-2.71-3.58-5.48-7.16-8.08-10.79c-0.38-0.43-0.7-0.92-1.03-1.36c-1.84-2.44-3.63-4.93-5.37-7.43
						c-4.01-5.64-7.92-11.28-11.71-17.03c-2.11-3.15-4.23-6.34-6.24-9.54c-3.09-4.83-6.13-9.65-9.11-14.59
						c-2.06-3.47-4.18-7-6.24-10.52c-2.82-4.93-5.59-9.98-8.35-15.02c-2.01-3.8-4.01-7.59-5.96-11.39
						c-2.01-3.85-3.96-7.75-5.8-11.66c-0.33-0.54-0.6-1.08-0.81-1.63c-4.12-8.4-7.97-16.92-11.55-25.49
						c-0.22-0.38-0.38-0.71-0.49-1.08c-1.79-4.23-3.52-8.46-5.21-12.74c-1.79-4.45-3.52-8.95-5.15-13.5
						c-1.68-4.5-3.31-9.06-4.83-13.61c-1.14-3.36-2.28-6.78-3.36-10.19c-0.87-2.71-1.68-5.42-2.49-8.13
						c-0.38-1.19-0.76-2.44-1.08-3.63c-0.81-2.66-1.57-5.26-2.28-7.92c-1.08-3.9-2.11-7.81-3.15-11.77
						c-40.56-286.31,219.78-603.86,479.9-740.02c66.16-34.65,145.33-34.65,211.48,0c5.86,3.04,11.66,6.29,17.51,9.65l0.05,0.05
						C2158.12,1344.45,2187.46,1363.48,2216.25,1384.36z"/>
				</g>
				<g>
					<path class="st4" d="M1999.94,2539.37c-113.99,0-227.96-34.3-325.19-102.89c-3.97-2.81-7.92-5.66-11.87-8.52
						c-0.21-0.15-0.41-0.3-0.6-0.46c-0.27-0.18-0.54-0.37-0.8-0.56c-4.09-3.06-7.87-5.88-11.58-8.69c-3.84-2.95-7.62-5.9-11.39-8.88
						c-0.32-0.22-0.62-0.44-0.92-0.69c-3.81-3.07-7.57-6.14-11.34-9.21c-4.38-3.59-8.27-6.92-12.15-10.25
						c-3.89-3.34-7.73-6.67-11.5-10.06l-0.53-0.48c-3.66-3.28-7.26-6.52-10.81-9.87c-3.63-3.36-7.3-6.86-10.97-10.42
						c-3.6-3.44-7.25-7.03-10.84-10.67c-3.68-3.73-7.13-7.25-10.54-10.82c-3.53-3.75-6.96-7.4-10.41-11.12
						c-3.45-3.79-6.73-7.46-10.01-11.24c-2.47-2.79-5.04-5.75-7.55-8.72c-7.45-8.81-14.59-17.65-21.25-26.29l-1.79-2.36
						c-2.12-2.79-4.25-5.59-6.29-8.42c-0.38-0.47-0.73-0.95-1.07-1.42c-2.01-2.66-3.92-5.33-5.78-8
						c-4.36-6.12-8.29-11.84-11.93-17.36c-2.14-3.18-4.35-6.52-6.45-9.87c-3.09-4.82-6.2-9.77-9.25-14.83l-1.91-3.22
						c-1.48-2.49-2.98-5-4.44-7.5c-2.8-4.9-5.47-9.76-8.13-14.61l-0.43-0.78c-2.16-4.08-4.2-7.93-6.18-11.78
						c-1.96-3.77-3.92-7.67-5.77-11.57c-0.45-0.82-0.86-1.64-1.21-2.47c-4.38-9.06-8.13-17.31-11.44-25.2
						c-0.32-0.63-0.66-1.39-0.98-2.26c-1.76-4.18-3.48-8.36-5.14-12.6c-1.81-4.51-3.63-9.21-5.33-13.97
						c-1.67-4.46-3.35-9.2-4.94-13.94c-1.15-3.39-2.32-6.9-3.44-10.42c-0.88-2.78-1.72-5.58-2.57-8.37
						c-0.37-1.17-0.81-2.63-1.19-4.02c-0.74-2.4-1.56-5.2-2.31-8.06c-1.05-3.8-2.11-7.78-3.16-11.83c-0.16-0.6-0.28-1.21-0.37-1.82
						c-24.56-173.38,57.12-333.84,129.98-437.92c92.06-131.52,222.72-247.71,358.49-318.77c70.94-37.15,155.63-37.15,226.57,0
						c135.76,71.06,266.43,187.26,358.49,318.77c72.85,104.08,154.54,264.53,129.98,437.92c-0.09,0.6-0.21,1.19-0.36,1.77
						c-1,3.88-2.05,7.82-3.11,11.65l-2.79,9.71c-0.24,0.84-0.49,1.67-0.77,2.52c-0.49,1.71-1.02,3.42-1.55,5.11l-0.56,1.79
						c-0.89,2.88-1.83,5.71-2.76,8.53l-0.21,0.64c-0.47,1.4-0.92,2.77-1.38,4.08c-1.42,4.25-2.96,8.64-4.61,12.97
						c-1.58,4.43-3.39,9.14-5.26,13.79c-1.71,4.44-3.63,9.07-5.6,13.69c-1.89,4.49-3.92,9.12-6.01,13.63
						c-1.88,4.18-3.89,8.49-5.96,12.8l-0.94,1.88c-1.75,3.74-3.8,7.78-5.91,11.82c-2.3,4.56-4.59,8.85-6.93,13.2
						c-2.83,5.21-5.69,10.31-8.65,15.35c-1.9,3.33-3.96,6.78-6.02,10.23c-0.02,0.04-0.04,0.07-0.07,0.11
						c-0.05,0.08-0.1,0.17-0.15,0.25c-2.56,4.24-5.19,8.42-7.86,12.6c-4.77,7.45-9.26,14.21-13.71,20.65
						c-2.04,2.97-4.17,5.94-6.29,8.91c-1.75,2.46-3.53,4.9-5.36,7.4c-2.71,3.71-5.47,7.35-8.24,11c-2.77,3.62-5.48,7.06-8.26,10.55
						c-1.6,2-3.16,3.96-4.74,5.86l-8.56,10.28c-5.11,5.99-10.36,11.97-15.63,17.79c-2.39,2.71-5.04,5.53-7.69,8.34l-5.96,6.35
						c-2.97,3.09-5.71,5.94-8.55,8.73c-3.78,3.84-7.88,7.88-11.97,11.86c-3.31,3.2-6.59,6.32-9.92,9.38
						c-0.62,0.61-1.25,1.2-1.88,1.74c-3.36,3.19-6.78,6.28-10.26,9.38c-6.74,5.99-13.38,11.72-19.75,17.04l-4.9,4.09
						c-3.52,2.89-6.95,5.65-10.43,8.42c-11.98,9.51-24.44,18.84-37.01,27.72c-0.1,0.07-0.42,0.29-0.6,0.42
						c-0.04,0.03-0.09,0.06-0.13,0.09C2227.34,2505.24,2113.63,2539.36,1999.94,2539.37z M1682.35,2401.89
						c3.73,2.69,7.46,5.38,11.18,8.02c182.96,129.09,428.97,129.28,612.16,0.46v0c0.25-0.18,0.53-0.37,0.69-0.48
						c12.07-8.53,24.03-17.48,35.54-26.61c3.34-2.66,6.64-5.31,9.88-7.97l4.82-4.03c6.1-5.1,12.49-10.61,18.97-16.37
						c3.33-2.96,6.62-5.93,9.84-9c0.28-0.27,0.57-0.52,0.87-0.77l0.3-0.3c0.17-0.16,0.34-0.32,0.51-0.48
						c3.2-2.94,6.35-5.94,9.5-8.98c3.9-3.79,7.83-7.67,11.65-11.55c2.82-2.76,5.33-5.38,7.89-8.04l5.69-6.07
						c2.62-2.78,5.03-5.34,7.34-7.95c5.19-5.73,10.22-11.46,15.1-17.19l8.17-9.8c1.53-1.86,3-3.69,4.47-5.53
						c2.62-3.3,5.22-6.59,7.82-9.98c2.6-3.44,5.26-6.95,7.87-10.52c1.74-2.38,3.44-4.71,5.13-7.09c2.03-2.82,4.02-5.61,5.96-8.44
						c4.27-6.18,8.55-12.62,13.11-19.75c2.52-3.94,5-7.89,7.42-11.89c0.04-0.07,0.08-0.13,0.12-0.2l0,0
						c1.96-3.28,3.91-6.55,5.82-9.88c2.88-4.89,5.55-9.67,8.17-14.49c2.18-4.05,4.35-8.11,6.45-12.27c0.03-0.06,0.22-0.44,0.25-0.5
						c1.9-3.66,3.76-7.31,5.51-11.02l1-2.02c1.81-3.76,3.7-7.81,5.53-11.9c2.01-4.35,3.89-8.62,5.66-12.83
						c1.85-4.35,3.62-8.62,5.29-12.94c1.8-4.48,3.46-8.78,5.01-13.13c1.61-4.24,3-8.2,4.34-12.2l1.5-4.47
						c0.87-2.61,1.74-5.22,2.56-7.88l0.6-1.92c0.47-1.51,0.96-3.04,1.39-4.58c0.09-0.35,0.2-0.69,0.32-1.03
						c0.16-0.45,0.28-0.9,0.41-1.34l2.71-9.42c0.89-3.25,1.82-6.7,2.71-10.12c17.68-126.88-26.53-273.79-124.54-413.8
						c-89.17-127.39-215.62-239.88-346.92-308.61c-61.48-32.21-134.9-32.21-196.39,0c-131.3,68.73-257.75,181.21-346.93,308.61
						c-98,140-142.2,286.91-124.54,413.78c0.93,3.56,1.87,7.08,2.84,10.61c0.7,2.66,1.41,5.06,2.16,7.52
						c0.4,1.45,0.72,2.49,1.04,3.49c0.85,2.84,1.65,5.46,2.48,8.09c1.06,3.33,2.17,6.65,3.28,9.92c1.48,4.44,3.04,8.82,4.65,13.14
						c1.64,4.57,3.3,8.87,5,13.13c1.68,4.28,3.36,8.38,5.1,12.48c0.03,0.08,0.06,0.15,0.09,0.23c0.15,0.31,0.29,0.62,0.42,0.92
						c3.2,7.66,6.86,15.73,11.19,24.67c0.1,0.21,0.2,0.43,0.3,0.65c0.21,0.36,0.4,0.73,0.58,1.11c1.76,3.71,3.61,7.43,5.52,11.09
						c1.97,3.83,3.95,7.56,5.92,11.3l0.31,0.56c2.58,4.7,5.16,9.4,7.79,14c1.34,2.29,2.78,4.71,4.22,7.12l1.88,3.16
						c2.85,4.71,5.81,9.42,8.82,14.12c2,3.18,4.01,6.24,6.04,9.24c3.51,5.31,7.24,10.73,11.46,16.67c1.71,2.46,3.37,4.78,5.09,7.05
						c0.07,0.1,0.41,0.55,0.48,0.66l-0.22-0.24c0.37,0.41,0.71,0.84,1.03,1.29c1.96,2.74,4.01,5.43,6.06,8.13l1.75,2.31
						c6.28,8.15,13.11,16.6,20.22,25.02c2.35,2.77,4.77,5.56,7.19,8.29c3.22,3.71,6.34,7.2,9.51,10.69
						c3.28,3.54,6.67,7.14,10.06,10.75c3.2,3.36,6.54,6.75,9.88,10.14c3.57,3.63,6.97,6.98,10.43,10.28
						c3.58,3.47,7.07,6.8,10.61,10.08c3.47,3.27,6.89,6.34,10.36,9.46l0.52,0.47c3.59,3.22,7.24,6.39,10.94,9.57
						c3.7,3.17,7.41,6.35,11.22,9.47c3.76,3.08,7.24,5.91,10.73,8.73c0.25,0.18,0.5,0.36,0.74,0.55c3.89,3.09,7.77,6.12,11.66,9.1
						c3.54,2.68,7.21,5.42,10.88,8.17C1681.16,2400.97,1681.76,2401.41,1682.35,2401.89z M1661.87,2427.16c0,0,0.01,0.01,0.01,0.01
						C1661.88,2427.17,1661.88,2427.16,1661.87,2427.16z M2386.7,2344.82c-0.04,0.03-0.08,0.06-0.12,0.1
						C2386.62,2344.88,2386.66,2344.85,2386.7,2344.82z M1457.5,2127.66c0,0.01,0,0.01,0.01,0.02
						C1457.51,2127.68,1457.51,2127.67,1457.5,2127.66z M1456.5,2125.19c0,0,0,0.01,0.01,0.01
						C1456.51,2125.2,1456.51,2125.19,1456.5,2125.19z M2585.59,2050.6h0.05H2585.59z"/>
				</g>
				<g>
					<g>
						<g>
							<g>
								<path class="st9" d="M2455.64,2132.77c-1,3.05-2.09,6.13-3.22,9.31c-30.15,77.23-89.28,118.39-125.09,71.79l21.36-104.9
									l14.53-71.31C2419.09,1999.5,2493.58,2016.65,2455.64,2132.77z"/>
							</g>
							<g>
								<path class="st4" d="M2363.15,2235.47c-14.21,0-27.02-6.97-37.35-20.42l-0.54-0.7l36.23-177.85l0.65-0.44
									c30.5-20.83,64.82-24.44,85.41-9c13.4,10.05,32.51,37.24,9.94,106.31l0,0c-1,3.06-2.09,6.17-3.23,9.36
									c-20.15,51.62-53.38,87.82-84.68,92.27C2367.4,2235.32,2365.25,2235.47,2363.15,2235.47z M2329.41,2213.39
									c10.87,13.78,24.53,19.92,39.61,17.79c29.93-4.27,61.96-39.51,81.59-89.79c1.11-3.11,2.19-6.18,3.18-9.21l0,0
									c16.17-49.49,13.12-85.72-8.59-102.01c-19.11-14.34-51.28-10.84-80.24,8.66L2329.41,2213.39z"/>
							</g>
						</g>
						<g class="st3">
							<path class="st4" d="M2455.64,2132.77c-1,3.05-2.09,6.13-3.22,9.31c-30.15,77.23-89.28,118.39-125.09,71.79l21.36-104.9
								c5-0.39,8.01-0.61,8.01-0.61c21.71,67.92,53.26,73.97,94.63,18.1C2451.33,2126.46,2452.9,2128.77,2455.64,2132.77z"/>
						</g>
						<g>
							<path class="st4" d="M2363.22,2246.57c-17.63,0-33.83-8.59-46.24-24.74c-2.31-3-3.2-6.85-2.44-10.56l35.89-176.21
								c0.67-3.33,2.62-6.26,5.42-8.17c34.85-23.8,74.65-27.1,99.02-8.19c16.35,12.68,39.38,46.14,9.81,127.83
								c-22.01,56.38-57.81,94.38-93.55,99.48C2368.48,2246.38,2365.84,2246.57,2363.22,2246.57z M2341.39,2210.26
								c7.68,8.05,16.27,11.28,26.07,9.9c25.63-3.65,54.88-36.94,72.8-82.82c17.37-48.01,16.91-83.85-1.37-98.02
								c-14.29-11.08-40.07-8.37-63.97,6.31L2341.39,2210.26z"/>
						</g>
						<g>
							<g>
								<path class="st9" d="M1544.36,2132.77c1,3.05,2.09,6.13,3.22,9.31c30.15,77.23,89.28,118.39,125.09,71.79l-21.36-104.9
									l-14.53-71.31C1580.91,1999.5,1506.42,2016.65,1544.36,2132.77z"/>
							</g>
							<g>
								<path class="st4" d="M1636.87,2236.25c-2.15,0-4.33-0.16-6.54-0.47c-31.56-4.49-65.03-40.88-85.26-92.7
									c-1.17-3.27-2.27-6.38-3.28-9.45v0c-22.71-69.53-3.35-96.99,10.22-107.17c20.84-15.64,55.53-12.04,86.3,8.98l0.91,0.62
									l36.37,178.5l-0.76,0.98C1664.33,2229.17,1651.32,2236.25,1636.87,2236.25z M1546.94,2131.93c0.99,3.02,2.08,6.09,3.2,9.24
									c19.5,49.95,51.29,85.01,80.95,89.23c14.88,2.11,27.88-3.67,38.68-17.22l-35.43-173.9c-28.62-19.17-60.3-22.61-79.08-8.51
									C1533.83,2046.85,1530.88,2082.78,1546.94,2131.93L1546.94,2131.93z"/>
							</g>
						</g>
						<g class="st6">
							<path class="st7" d="M1624.42,2232.25c-27.63-9.22-56.13-42.55-74.23-88.89c-1.13-3.18-2.22-6.27-3.22-9.31
								c-37.94-116.13,36.55-133.27,92.41-95.11l0.26,1.31c-50.51-19.1-101.46,7.4-68.74,107.6c1,3.05,2.09,6.14,3.22,9.31
								C1586.96,2190.09,1605.11,2216.46,1624.42,2232.25z"/>
						</g>
						<g>
							<path class="st4" d="M1636.78,2246.57c-2.61,0-5.25-0.19-7.92-0.57c-35.74-5.1-71.54-43.1-93.43-99.17
								c-29.68-82-6.66-115.46,9.69-128.14c24.38-18.9,64.17-15.61,99.02,8.19c2.8,1.91,4.75,4.85,5.42,8.17l35.9,176.21
								c0.76,3.71-0.13,7.56-2.44,10.56C1670.61,2237.97,1654.41,2246.57,1636.78,2246.57z M1583.76,2032.52
								c-8.88,0-16.74,2.22-22.65,6.8c-18.28,14.17-18.74,50.01-1.25,98.32c17.8,45.58,47.05,78.86,72.68,82.51
								c9.81,1.39,18.38-1.85,26.07-9.9l-33.54-164.63C1611.05,2037.01,1596.37,2032.52,1583.76,2032.52z"/>
						</g>
						<g>
							<g>
								<path class="st9" d="M2355.35,2111.63v60.3c0,103.73-49.64,202.1-135.14,260.84c-1.22,0.83-2.44,1.61-3.61,2.44
									c-130.4,87.41-301.13,87.41-431.52,0.04c-1.17-0.83-2.39-1.65-3.61-2.48c-85.54-58.69-135.18-157.07-135.18-260.84v-60.3
									c0,0,0.22-3.87,0.65-10.83c3.22-55.04,17.8-302,20.14-308.31C1744.7,1583.56,2520.73,1634.77,2355.35,2111.63z"/>
							</g>
							<g>
								<path class="st4" d="M2000.79,2503.82c-75.63,0-151.24-22.1-217.23-66.31c-1.1-0.77-2.18-1.51-3.27-2.25
									c-85.75-58.83-136.72-157.18-136.72-263.32v-60.3c0.01-0.15,0.22-4.03,0.66-11c5.31-90.78,17.91-302.65,20.31-309.08
									c20.37-54.84,89.44-95.48,189.5-111.48c96.58-15.45,209.09-4.98,300.94,28.01c91.71,32.93,295,138.22,203.08,404.02v59.85
									c0,106.09-50.96,204.43-136.31,263.07l-1.41,0.94c-0.74,0.49-1.47,0.98-2.18,1.48
									C2152.13,2481.68,2076.46,2503.82,2000.79,2503.82z M1945.59,1678.48c-31.01,0-61.58,2.28-90.69,6.94
									c-98.07,15.68-165.6,55.05-185.27,108.02c-1.88,6.95-11.94,170.02-19.99,307.52c-0.43,6.96-0.65,10.82-0.65,10.83l0,60.15
									c0,104.35,50.1,201.03,134.01,258.6c1.46,0.99,2.57,1.75,3.64,2.5c130.11,87.17,298.31,87.15,428.45-0.08
									c0.7-0.5,1.47-1.01,2.25-1.52l1.35-0.91c83.87-57.62,133.95-154.29,133.95-258.59l0.15-61.19
									c90.71-261.55-109.39-365.16-199.63-397.57C2089.81,1690.42,2016.54,1678.48,1945.59,1678.48z"/>
							</g>
						</g>
						<g class="st3">
							<path class="st4" d="M2355.35,2111.63v60.3c0,103.73-49.64,202.1-135.14,260.84c-1.22,0.83-2.44,1.61-3.61,2.44
								c-130.4,87.41-301.13,87.41-431.52,0.04c-1.17-0.83-2.39-1.65-3.61-2.48c-2.7-1.87-5.4-3.79-8.05-5.74
								c122.7,59.65,269.76,50.77,385.19-26.63c1.17-0.83,2.39-1.61,3.61-2.44c85.5-58.74,135.14-157.11,135.14-260.84l5.16-76.02
								c56.13-161.81-1.33-258.87-97.92-329.1C2336.03,1796.8,2421.87,1919.75,2355.35,2111.63z"/>
						</g>
						<g class="st3">
							<path class="st4" d="M2355.35,2111.63v24.5c-38.98-57.43-46.51-214.15-46.51-214.15c-34.08,37.01-225.5,79.69-359.84,8.32
								c-7.25-3.85-15.2,3.85-11.56,11.2c1.64,3.31,2.3,4.43,2.3,4.43c-17.67,10.94-100.9,0.28-146.05-26
								c-12.56-7.31-28.57,0.61-30.82,14.96c-10.12,64.55-42.25,109.49-111.02,176.73c-1.7-3.61-3.35-7.22-4.92-10.83
								c3.22-55.04,17.8-302,20.14-308.31C1744.7,1583.56,2520.73,1634.77,2355.35,2111.63z"/>
						</g>
						<g class="st6">
							<path class="st7" d="M2147.94,2471.8c-117.91,48.34-254.35,36.16-362.87-36.55c-1.17-0.83-2.39-1.65-3.61-2.48
								c-85.54-58.69-135.18-157.07-135.18-260.84v-60.3c0,0,18.14-312.05,20.8-319.14c16.32-43.9,63.44-76.31,126.22-95.72
								c-47.21,19.71-81.88,48.21-95.42,84.58c-2.65,7.14-20.8,319.14-20.8,319.14v60.3c0,103.77,49.64,202.14,135.18,260.88
								c1.22,0.78,2.56,1.45,3.65,2.44C1900.59,2500.77,2037.6,2506.47,2147.94,2471.8z"/>
						</g>
						<g>
							<path class="st4" d="M2000.82,2514.18c-77.63,0-155.25-22.7-222.99-68.09c-1.25-0.83-2.5-1.68-3.75-2.54
								c-88.2-60.52-140.85-162.06-140.85-271.62v-60.3c0-0.25,0.01-0.51,0.02-0.76c18.25-313.76,20.77-320.72,21.6-322.94l0,0
								c47.77-128.52,316.87-156.67,503.67-89.58c88.98,31.96,156.36,82.65,194.84,146.58c45.29,75.24,50.35,165.7,15.04,268.89
								v58.12c0,109.53-52.64,211.06-140.82,271.59l-3.72,2.52C2156.12,2491.46,2078.47,2514.17,2000.82,2514.18z M1659.33,2112.01
								v59.92c0,100.95,48.42,194.44,129.53,250.1c1.16,0.8,2.32,1.58,3.5,2.37c126.67,84.89,290.33,84.88,416.96-0.02l3.48-2.36
								c81.09-55.67,129.5-149.15,129.5-250.08v-60.3c0-1.46,0.24-2.9,0.72-4.28c87.69-252.8-105.99-353.06-193.33-384.43
								c-189.3-67.99-430.2-30.34-470.01,73.16C1677.26,1812.94,1666.26,1993.04,1659.33,2112.01z M1679.32,1797.02
								C1679.31,1797.02,1679.31,1797.02,1679.32,1797.02C1679.31,1797.02,1679.31,1797.02,1679.32,1797.02z M1679.41,1796.76
								c-0.03,0.08-0.06,0.17-0.09,0.24C1679.35,1796.94,1679.38,1796.86,1679.41,1796.76z M1667.08,1792.47h0.05H1667.08z"/>
						</g>
						<g>
							<g>
								<path class="st10" d="M2351.26,1664.57c97.9,125.09,85.71,342.76,3.26,456.85c-63.09-34.81-67.27-199.45-67.27-199.45
									c-149.32,40.64-300.43,15.84-437.44-102.2c-2.92,46.38,35.94,89.41,35.94,89.41c-17.62-0.52-33.42-3.09-47.6-7.35
									c-49.56-14.84-79.06-50.73-97.11-95.85c-17.4,156.63-18.49,191.44-94.76,305.65c-76.14-163.16-90.15-364.39,36.77-424.56
									c-176.95-60.91-111.69-184.22,40.59-74.71c-74.71-107.34,19.58-148.71,39.16-30.46c110.12-201.14,593.9-130.53,659.47,97.9
									l-70.83-15.18C2351.3,1664.57,2351.26,1664.57,2351.26,1664.57z"/>
							</g>
							<g>
								<path class="st4" d="M2355.31,2124.95l-2.1-1.16c-59.37-32.75-67.57-173.74-68.55-198.31
									c-158.62,42.16-304.01,8.54-432.29-99.96c0.42,42.55,35.03,81.44,35.4,81.84l4.25,4.71l-6.34-0.19
									c-17.27-0.51-33.52-3.02-48.31-7.46c-42.86-12.83-73.95-41.62-94.77-87.85l-0.95,8.59
									c-15.48,140.25-19.64,177.95-93.12,287.97l-2.68,4l-2.04-4.36c-76.68-164.34-89.43-361.42,32.3-425.28
									c-71.47-25.95-99.58-60.9-101.9-85.39c-1.22-12.79,4.28-23.38,15.47-29.8c20.98-12.04,64.12-9.89,124.1,29.95
									c-25.13-41.12-24.42-70.88-15.35-84.52c5.32-7.99,13.65-11.45,22.78-9.48c15.27,3.28,34.13,22.38,42.91,65.88
									c60.56-100.62,206.66-122.86,324.97-109.71c140.97,15.67,299.46,88.11,335.78,214.62l1.25,4.35l-68.26-14.63
									c94.99,128.48,78.49,344.06-1.14,454.24L2355.31,2124.95z M2289.88,1918.45l0.09,3.45c0.04,1.61,4.75,159.79,63.78,195.93
									c78.49-110.92,93.28-326.49-4.62-451.59l-3.43-4.38l6.63,0.2l66.04,14.13c-38-121.41-192.33-191.09-329.86-206.37
									c-119.04-13.23-266.49,9.6-323.32,113.39l-3.77,6.89l-1.28-7.75c-7.63-46.06-26.33-65.84-40.04-68.79
									c-6.96-1.49-13.04,1.05-17.12,7.18c-8.97,13.48-8.35,45.16,22.91,90.08l9.04,12.99l-12.85-9.24
									c-63.93-45.97-109.82-48.96-129.67-37.56c-9.24,5.3-13.77,14.03-12.77,24.59c2.13,22.42,30.73,57.59,104.32,82.91l6.29,2.17
									l-6.01,2.85c-123.56,58.58-112.42,253.02-37.5,416.57c70.16-105.83,74.38-144.04,89.55-281.52l3.29-29.64l4.02,10.04
									c20.1,50.23,51.3,81.07,95.37,94.26c12.58,3.78,26.28,6.12,40.8,6.97c-10.04-12.62-35.04-48.15-32.62-86.6l0.34-5.44
									l4.13,3.56c128.77,110.94,275.11,145.15,434.96,101.64L2289.88,1918.45z"/>
							</g>
						</g>
						<g class="st3">
							<path class="st4" d="M1722.93,1778.71c6.49,12.52,12.41,26.63,16.33,43.37c-15.79,143.1-19.41,179.34-92.98,289.55
								c-8.61-18.49-16.45-37.42-23.32-56.61c60.41-93.71,67.48-146.65,81.43-272.9
								C1705.47,1772.42,1718.44,1770.04,1722.93,1778.71z"/>
						</g>
						<g class="st6">
							<path class="st7" d="M1694.88,1593.78c-95.81-40.59-130.48,29.59-37.16,83.45
								C1523.02,1618.5,1571.05,1522.86,1694.88,1593.78z"/>
						</g>
						<g class="st6">
							<path class="st7" d="M1680,1688.59c0.09,0.04,0.18,0.08,0.27,0.12c12.06,5.33,14.61,21.16,4.46,29.58
								c-86.69,71.88-83.39,233.6-26.18,374.59c-3.83,6-7.92,12.27-12.27,18.75C1570.75,1949.77,1556.35,1750.5,1680,1688.59z"/>
						</g>
						<g class="st6">
							<path class="st7" d="M1717.68,1610.62l-0.29-0.16c-50.56-77.84-4.56-122.66,26.16-86.77c-16.97,2.5-27.04,28.74-8.2,70.26
								C1740.34,1604.96,1728.29,1616.42,1717.68,1610.62z"/>
						</g>
						<g class="st6">
							<path class="st7" d="M2326.24,1562.33c-83.36-38.46-195.01-64.18-296.34-64.65c-15.62,29.98-68.27,28.5-90.41,7.18
								c-57,10.22-105.25,31.81-135.36,67.79c-8.61,10.31-25.45,9.62-32.24-2c-0.39-0.61-0.74-1.26-1.04-2
								C1865.26,1448.24,2183.75,1438.32,2326.24,1562.33z"/>
						</g>
						<g>
							<path class="st4" d="M2354.51,2134.47c-2.14,0-4.31-0.53-6.29-1.63c-57.56-31.76-70.42-149.02-73.26-194.23
								c-148.61,36.04-285.59,6.49-407.92-87.93c8.84,27.69,28.15,49.48,28.41,49.77c3.49,3.89,4.33,9.49,2.13,14.23
								c-2.15,4.62-6.77,7.56-11.83,7.56c-0.13,0-0.26,0-0.4,0c-59.93-1.84-105.54-26.04-136.07-72.07
								c-13.78,123.09-21.64,163.14-92.15,268.72c-2.62,3.92-7.1,6.11-11.85,5.77c-4.7-0.36-8.84-3.22-10.83-7.5
								c-74.82-160.34-89.26-351.56,18.64-427.69c-61.71-26.81-86.78-61.24-89.17-86.38c-1.6-16.82,5.92-31.31,20.62-39.75
								c19.75-11.35,56.05-12.18,104.78,12.59c-10.75-29.23-7.93-51.22,0.52-63.92c7.69-11.54,20.25-16.72,33.56-13.86
								c19.17,4.12,35.08,22.8,44.92,51.67c69.02-88.63,208.11-108.31,321.93-95.67c144.39,16.05,306.94,90.93,344.57,222.05
								c1.27,4.41,0.13,9.16-3,12.51c-3.13,3.35-7.78,4.81-12.28,3.85l-38.83-8.33c35.33,57.96,53.95,132.28,52.88,213.06
								c-1.18,88.71-26.13,173.18-68.47,231.77C2362.57,2132.57,2358.58,2134.47,2354.51,2134.47z M2287.25,1908.92
								c2.78,0,5.52,0.89,7.8,2.58c3.21,2.39,5.15,6.13,5.25,10.14c1.05,40.56,12.38,145.94,50.98,181.39
								c71.11-110.19,82.36-312.02-10.3-430.41c-3.39-4.33-3.7-10.31-0.79-14.97c2.91-4.66,8.41-6.99,13.8-5.84l48.17,10.33
								c-45.23-106.42-187.34-167.88-314.82-182.05c-145.43-16.15-268.32,26.26-313.11,108.08c-2.68,4.89-8.15,7.54-13.64,6.6
								c-5.49-0.93-9.78-5.24-10.69-10.74c-7.27-43.87-24.12-58.67-32.01-60.36c-1.94-0.42-4.21-0.42-6.35,2.8
								c-5.38,8.08-7.53,34.87,22.78,78.44c3.63,5.22,2.97,12.29-1.55,16.76c-4.54,4.46-11.63,5-16.78,1.3
								c-56.09-40.34-99.93-47.64-118.48-36.98c-5.75,3.3-8.25,8.09-7.62,14.64c1.98,20.89,32.87,51.91,97.38,74.12
								c5.02,1.73,8.49,6.32,8.78,11.62c0.29,5.3-2.65,10.25-7.44,12.52c-68.27,32.37-85.03,106.15-87.08,162.34
								c-2.42,66.62,14.56,146.86,46.91,223.26c58.81-91.69,62.98-129.46,77.5-261.03l2.09-18.9c0.66-5.95,5.29-10.69,11.22-11.49
								c5.95-0.81,11.65,2.53,13.87,8.09c21.02,52.56,55.52,82.9,105.04,92.09c-11.22-18.53-23.22-45.54-21.42-74.27
								c0.31-4.95,3.39-9.29,7.96-11.21c4.56-1.92,9.83-1.1,13.58,2.14c126.02,108.56,269.16,142.04,425.49,99.49
								C2284.96,1909.07,2286.11,1908.92,2287.25,1908.92z"/>
						</g>
						<g>
							<path class="st4" d="M2287.25,1935.03c-5.76,0-11.03-3.84-12.59-9.67c-1.88-6.96,2.25-14.12,9.21-16
								c16.21-4.36,32.6-9.59,48.72-15.56c6.76-2.5,14.27,0.95,16.77,7.71c2.5,6.76-0.95,14.27-7.71,16.77
								c-16.87,6.24-34.02,11.72-51.01,16.29C2289.51,1934.88,2288.37,1935.03,2287.25,1935.03z"/>
						</g>
						<g class="st3">
							<path class="st4" d="M2354.52,2121.42c-63.09-34.81-67.27-199.45-67.27-199.45c-149.32,40.64-300.43,15.84-437.44-102.2
								c-2.92,46.38,35.94,89.41,35.94,89.41c-17.62-0.52-33.42-3.09-47.6-7.35c-71.44-117.74-41.03-145.49,61.7-109.29
								c285.07,91.98,492.61,106.38,451.41-127.96C2449.16,1789.66,2436.97,2007.34,2354.52,2121.42z"/>
						</g>
						<g class="st11">
							<path class="st12" d="M2282.15,1773.35c0,19.77-38.71,35.8-86.47,35.8c-47.75,0-86.47-16.03-86.47-35.8
								s38.71-20.28,86.47-20.28C2243.44,1753.07,2282.15,1753.58,2282.15,1773.35z"/>
						</g>
						<g>
							<g>
								<path class="st4" d="M2046.56,2352.99c0,0-18.72,11.96-67.51,11.96c-10.59,0.73-40.88-0.93-79.16-35.88
									c0,0,17.68,50.97,78.02,50.97C1977.91,2380.04,2012.23,2383.16,2046.56,2352.99z"/>
							</g>
						</g>
						<g>
							<path class="st4" d="M1769.54,2126.48c4.1-13.31,13.91-24.39,25.99-31.93c12.15-7.53,26.71-11.38,41.14-11.23
								c14.45,0.1,28.8,4.24,40.82,11.73c11.96,7.51,21.78,18.27,26.36,31.43c-13.13-4.51-24.31-8.12-35.35-10.43
								c-10.96-2.37-21.54-3.54-32.09-3.69c-10.56-0.11-21.1,0.83-31.96,3.13C1793.5,2117.75,1782.45,2121.44,1769.54,2126.48z"/>
						</g>
						<g>
							<path class="st4" d="M2237.34,2126.48c-12.92-5.03-23.96-8.73-34.9-10.99c-10.87-2.31-21.4-3.24-31.96-3.13
								c-10.56,0.15-21.13,1.32-32.09,3.69c-11.04,2.32-22.22,5.92-35.35,10.43c4.58-13.15,14.4-23.92,26.36-31.43
								c12.01-7.49,26.37-11.63,40.82-11.73c14.44-0.15,28.99,3.7,41.14,11.23C2223.43,2102.09,2233.24,2113.16,2237.34,2126.48z"/>
						</g>
						<g>
							<ellipse class="st4" cx="1849.82" cy="2205.99" rx="44.87" ry="59.19"/>
						</g>
						<g>
							<g>
								<ellipse class="st7" cx="1861.28" cy="2192.26" rx="13.56" ry="19.88"/>
							</g>
							<g>
								<path class="st4" d="M1861.28,2214.85c-9.13,0-16.27-9.92-16.27-22.59s7.14-22.59,16.27-22.59
									c9.12,0,16.26,9.92,16.26,22.59S1870.4,2214.85,1861.28,2214.85z M1861.28,2175.09c-5.88,0-10.85,7.86-10.85,17.16
									s4.97,17.17,10.85,17.17s10.84-7.86,10.84-17.17S1867.16,2175.09,1861.28,2175.09z"/>
							</g>
						</g>
						<g>
							<ellipse class="st4" cx="2160.07" cy="2205.99" rx="44.87" ry="59.19"/>
						</g>
						<g>
							<g>
								<ellipse class="st7" cx="2148.61" cy="2192.26" rx="13.56" ry="19.88"/>
							</g>
							<g>
								<path class="st4" d="M2148.61,2214.85c-9.13,0-16.27-9.92-16.27-22.59s7.14-22.59,16.27-22.59
									c9.12,0,16.26,9.92,16.26,22.59S2157.73,2214.85,2148.61,2214.85z M2148.61,2175.09c-5.88,0-10.85,7.86-10.85,17.16
									s4.97,17.17,10.85,17.17s10.84-7.86,10.84-17.17S2154.49,2175.09,2148.61,2175.09z"/>
							</g>
						</g>
					</g>
				</g>
			</g>
			<defs>
				<filter id="Adobe_OpacityMaskFilter" filterUnits="userSpaceOnUse" x="1134.31" y="1954.24" width="1753.08" height="1337.13">
					<feFlood  style="flood-color:white;flood-opacity:1" result="back"/>
					<feBlend  in="SourceGraphic" in2="back" mode="normal"/>
				</filter>
			</defs>
			<mask maskUnits="userSpaceOnUse" x="1134.31" y="1954.24" width="1753.08" height="1337.13" id="SVGID_1_">
				<g class="st13">
					<defs>
						
							<filter id="Adobe_OpacityMaskFilter_1_" filterUnits="userSpaceOnUse" x="1134.31" y="1954.24" width="1753.08" height="1337.13">
							<feFlood  style="flood-color:white;flood-opacity:1" result="back"/>
							<feBlend  in="SourceGraphic" in2="back" mode="normal"/>
						</filter>
					</defs>
					<mask maskUnits="userSpaceOnUse" x="1134.31" y="1954.24" width="1753.08" height="1337.13" id="SVGID_1_">
						<g class="st14">
						</g>
					</mask>
					<linearGradient id="SVGID_2_" gradientUnits="userSpaceOnUse" x1="2010.8621" y1="1960.3319" x2="2001.5936" y2="3294.9143">
						<stop  offset="0" style="stop-color:#000000"/>
						<stop  offset="1" style="stop-color:#FFFFFF"/>
					</linearGradient>
					<polygon class="st15" points="2533.77,3291.35 1491.41,3291.37 1134.31,1954.24 2887.39,1969.52 					"/>
				</g>
			</mask>
			<polygon class="st16" points="2533.77,3291.35 1491.41,3291.37 1134.31,1954.24 2887.39,1969.52 			"/>
			<g>
				<g>
					<g>
						<path class="st17" d="M2656.07,3259.12c-6.96,34.41-25.58,64.01-51.25,85.03c-25.67,20.97-58.4,33.35-93.52,33.35h-997.43
							c-70.25,0-130.81-49.52-144.77-118.38H2656.07z"/>
					</g>
					<g>
						<path class="st4" d="M2511.29,3380.22h-997.43c-71.26,0-133.27-50.7-147.43-120.55l-0.66-3.25h1293.61l-0.66,3.25
							c-6.86,33.89-25.39,64.65-52.19,86.59C2579.72,3368.15,2545.9,3380.22,2511.29,3380.22z M1372.45,3261.84
							c14.89,65.65,73.84,112.95,141.42,112.95h997.43c33.35,0,65.96-11.63,91.81-32.74c24.97-20.45,42.5-48.84,49.61-80.22H1372.45
							z"/>
					</g>
				</g>
				<g>
					<path class="st4" d="M2511.31,3393.77h-997.44c-77.69,0-145.27-55.26-160.7-131.4c-0.97-4.78,0.26-9.75,3.35-13.53
						c3.09-3.78,7.71-5.97,12.59-5.97h1286.96c4.88,0,9.5,2.19,12.59,5.97s4.32,8.75,3.35,13.53
						C2656.59,3338.51,2589,3393.77,2511.31,3393.77z M1390.62,3275.41c18.83,50.75,67.84,85.83,123.26,85.83h997.44
						c55.42,0,104.43-35.09,123.27-85.83H1390.62z"/>
				</g>
				<g class="st3">
					<path class="st4" d="M2656.07,3259.12c-6.96,34.41-25.58,64.01-51.25,85.03c-25.67,20.97-58.4,33.35-93.52,33.35h-616.95
						c101.39-4.8,191.27-32.77,268.62-86.13c0,0,5.33-13,17.13-32.25H2656.07z"/>
				</g>
				<g>
					<g>
						<path class="st17" d="M2655.68,2633.68l-52.06,593.68c-3.17,36.23-33.49,64.01-69.87,64.01H1491.41
							c-36.32,0-66.65-27.78-69.87-64.01l-52.02-593.68c-5.13-58.3,40.84-108.5,99.33-108.5h1087.45c19.15,0,36.95,5.37,52.06,14.64
							C2639.46,2558.92,2659.14,2594.48,2655.68,2633.68z"/>
					</g>
					<g>
						<path class="st4" d="M2533.75,3294.08H1491.41c-38.01,0-69.21-28.58-72.57-66.49l-52.02-593.68
							c-2.51-28.54,7.15-57.04,26.51-78.19c19.36-21.14,46.88-33.26,75.52-33.26H2556.3c18.93,0,37.42,5.2,53.48,15.04
							c33.41,20.52,52.03,57.47,48.6,96.41v0l-52.07,593.68C2603.01,3265.5,2571.81,3294.08,2533.75,3294.08z M1468.86,2527.9
							c-27.12,0-53.19,11.48-71.52,31.5c-18.34,20.02-27.49,47.01-25.11,74.05l52.02,593.68c3.11,35.08,31.99,61.54,67.17,61.54
							h1042.34c35.23,0,64.1-26.46,67.17-61.54l52.07-593.68c3.25-36.88-14.38-71.87-46.04-91.31
							c-15.2-9.31-32.71-14.23-50.64-14.23H1468.86z"/>
					</g>
				</g>
				<g class="st18">
					<path class="st7" d="M2639.08,2569.24c-12.72-5.95-26.92-9.26-41.99-9.26H1509.64c-58.49,0-104.46,50.19-99.33,108.5
						l52.02,593.68c0.82,9.26,3.41,17.95,7.44,25.77c-26.1-8.45-45.68-31.86-48.23-60.56l-52.02-593.68
						c-5.13-58.3,40.84-108.5,99.33-108.5h1087.45C2590.95,2525.19,2621.23,2542.8,2639.08,2569.24z"/>
				</g>
				<g>
					<path class="st4" d="M2533.77,3307.62H1491.42c-45.12,0-82.12-33.9-86.07-78.85l-52.06-593.69
						c-2.83-32.32,8.11-64.58,30.03-88.51c21.92-23.92,53.1-37.64,85.55-37.64h1087.45c32.45,0,63.63,13.72,85.55,37.64
						c21.92,23.93,32.86,56.19,30.03,88.51l-52.06,593.68C2615.9,3273.72,2578.9,3307.62,2533.77,3307.62z M1468.87,2541.46
						c-23.69,0-45.55,9.62-61.56,27.09c-16,17.47-23.68,40.09-21.61,63.69l52.06,593.68c2.46,28.02,25.53,49.16,53.66,49.16h1042.35
						c28.13,0,51.2-21.14,53.66-49.16l52.06-593.68c2.07-23.6-5.61-46.22-21.61-63.69c-16.01-17.47-37.87-27.09-61.56-27.09H1468.87
						z"/>
				</g>
				<g class="st3">
					<path class="st4" d="M2655.68,2633.68l-52.06,593.68c-3.17,36.23-33.49,64.01-69.87,64.01h-940.23
						c578.56-45.54,936.53-279.28,1014.66-751.6l0.19,0.05C2639.46,2558.92,2659.14,2594.48,2655.68,2633.68z"/>
				</g>
				<g class="st3">
					<path class="st7" d="M1631.86,3023.5l-65.3,6.11c-16.93,1.58-31.94-10.86-33.53-27.79l-22.43-239.68
						c-1.58-16.93,10.86-31.94,27.79-33.53l65.3-6.11c16.93-1.58,31.94,10.86,33.53,27.79l22.43,239.68
						C1661.23,3006.9,1648.79,3021.91,1631.86,3023.5z"/>
				</g>
			</g>
		</g>
	</g>
</g>
</svg>
